<?xml version="1.0" standalone="no"?><svg xmlns:xlink="http://www.w3.org/1999/xlink" xmlns="http://www.w3.org/2000/svg" viewBox="0 0 1000 900.0103279873703" preserveAspectRatio="xMaxYMax slice"><g transform="scale(1.3412970610840094)"><rect x="0" y="0" width="745.5555555555555" height="671" fill="#ffffff"/><rect x="0" y="0" width="74.55555555555556" height="74.55555555555556" fill="#ffffff"/><circle cx="18.64" cy="18.64" r="18.64" fill="#000000"/><circle cx="55.92" cy="18.64" r="18.64" fill="#000000"/><circle cx="18.64" cy="55.92" r="18.64" fill="#000000"/><circle cx="55.92" cy="55.92" r="18.64" fill="#000000"/><rect x="74.55555555555556" y="0" width="74.55555555555556" height="74.55555555555556" fill="#ffffff"/><circle cx="93.2" cy="18.64" r="18.64" fill="#000000"/><circle cx="130.47" cy="18.64" r="18.64" fill="#000000"/><circle cx="93.2" cy="55.92" r="18.64" fill="#000000"/><circle cx="130.47" cy="55.92" r="18.64" fill="#000000"/><rect x="149.11111111111111" y="0" width="74.55555555555556" height="74.55555555555556" fill="#ffffff"/><circle cx="167.75" cy="18.64" r="18.64" fill="#000000"/><circle cx="205.02999999999997" cy="18.64" r="18.64" fill="#000000"/><circle cx="167.75" cy="55.92" r="18.64" fill="#000000"/><circle cx="205.02999999999997" cy="55.92" r="18.64" fill="#000000"/><circle cx="260.95" cy="37.28" r="37.28" fill="#000000"/><rect x="298.22222222222223" y="0" width="74.55555555555556" height="74.55555555555556" fill="#ffffff"/><circle cx="316.86" cy="18.64" r="18.64" fill="#000000"/><circle cx="354.14" cy="18.64" r="18.64" fill="#000000"/><circle cx="316.86" cy="55.92" r="18.64" fill="#000000"/><circle cx="354.14" cy="55.92" r="18.64" fill="#000000"/><rect x="372.77777777777777" y="0" width="74.55555555555556" height="74.55555555555556" fill="#ffffff"/><circle cx="391.41999999999996" cy="18.64" r="18.64" fill="#000000"/><circle cx="428.7" cy="18.64" r="18.64" fill="#000000"/><circle cx="391.41999999999996" cy="55.92" r="18.64" fill="#000000"/><circle cx="428.7" cy="55.92" r="18.64" fill="#000000"/><circle cx="484.61" cy="37.28" r="37.28" fill="#000000"/><rect x="521.8888888888889" y="0" width="74.55555555555556" height="74.55555555555556" fill="#ffffff"/><circle cx="540.53" cy="18.64" r="18.64" fill="#000000"/><circle cx="577.81" cy="18.64" r="18.64" fill="#000000"/><circle cx="540.53" cy="55.92" r="18.64" fill="#000000"/><circle cx="577.81" cy="55.92" r="18.64" fill="#000000"/><rect x="596.4444444444445" y="0" width="74.55555555555556" height="74.55555555555556" fill="#ffffff"/><circle cx="615.08" cy="18.64" r="18.64" fill="#000000"/><circle cx="652.36" cy="18.64" r="18.64" fill="#000000"/><circle cx="615.08" cy="55.92" r="18.64" fill="#000000"/><circle cx="652.36" cy="55.92" r="18.64" fill="#000000"/><circle cx="708.28" cy="37.28" r="37.28" fill="#000000"/><rect x="0" y="74.55555555555556" width="74.55555555555556" height="74.55555555555556" fill="#ffffff"/><circle cx="18.64" cy="93.2" r="18.64" fill="#000000"/><circle cx="55.92" cy="93.2" r="18.64" fill="#000000"/><circle cx="18.64" cy="130.47" r="18.64" fill="#000000"/><circle cx="55.92" cy="130.47" r="18.64" fill="#000000"/><circle cx="111.84" cy="111.84" r="37.28" fill="#000000"/><circle cx="186.39000000000001" cy="111.84" r="37.28" fill="#000000"/><rect x="223.66666666666669" y="74.55555555555556" width="74.55555555555556" height="74.55555555555556" fill="#ffffff"/><circle cx="242.31" cy="93.2" r="18.64" fill="#000000"/><circle cx="279.58" cy="93.2" r="18.64" fill="#000000"/><circle cx="242.31" cy="130.47" r="18.64" fill="#000000"/><circle cx="279.58" cy="130.47" r="18.64" fill="#000000"/><rect x="298.22222222222223" y="74.55555555555556" width="74.55555555555556" height="74.55555555555556" fill="#ffffff"/><circle cx="316.86" cy="93.2" r="18.64" fill="#000000"/><circle cx="354.14" cy="93.2" r="18.64" fill="#000000"/><circle cx="316.86" cy="130.47" r="18.64" fill="#000000"/><circle cx="354.14" cy="130.47" r="18.64" fill="#000000"/><rect x="372.77777777777777" y="74.55555555555556" width="74.55555555555556" height="74.55555555555556" fill="#ffffff"/><circle cx="391.41999999999996" cy="93.2" r="18.64" fill="#000000"/><circle cx="428.7" cy="93.2" r="18.64" fill="#000000"/><circle cx="391.41999999999996" cy="130.47" r="18.64" fill="#000000"/><circle cx="428.7" cy="130.47" r="18.64" fill="#000000"/><circle cx="484.61" cy="111.84" r="37.28" fill="#000000"/><rect x="521.8888888888889" y="74.55555555555556" width="74.55555555555556" height="74.55555555555556" fill="#ffffff"/><circle cx="540.53" cy="93.2" r="18.64" fill="#000000"/><circle cx="577.81" cy="93.2" r="18.64" fill="#000000"/><circle cx="540.53" cy="130.47" r="18.64" fill="#000000"/><circle cx="577.81" cy="130.47" r="18.64" fill="#000000"/><circle cx="633.72" cy="111.84" r="37.28" fill="#000000"/><rect x="671" y="74.55555555555556" width="74.55555555555556" height="74.55555555555556" fill="#ffffff"/><circle cx="689.64" cy="93.2" r="18.64" fill="#000000"/><circle cx="726.92" cy="93.2" r="18.64" fill="#000000"/><circle cx="689.64" cy="130.47" r="18.64" fill="#000000"/><circle cx="726.92" cy="130.47" r="18.64" fill="#000000"/><rect x="0" y="149.11111111111111" width="74.55555555555556" height="74.55555555555556" fill="#ffffff"/><circle cx="18.64" cy="167.75" r="18.64" fill="#000000"/><circle cx="55.92" cy="167.75" r="18.64" fill="#000000"/><circle cx="18.64" cy="205.02999999999997" r="18.64" fill="#000000"/><circle cx="55.92" cy="205.02999999999997" r="18.64" fill="#000000"/><rect x="74.55555555555556" y="149.11111111111111" width="74.55555555555556" height="74.55555555555556" fill="#ffffff"/><circle cx="93.2" cy="167.75" r="18.64" fill="#000000"/><circle cx="130.47" cy="167.75" r="18.64" fill="#000000"/><circle cx="93.2" cy="205.02999999999997" r="18.64" fill="#000000"/><circle cx="130.47" cy="205.02999999999997" r="18.64" fill="#000000"/><circle cx="186.39000000000001" cy="186.39000000000001" r="37.28" fill="#000000"/><rect x="223.66666666666669" y="149.11111111111111" width="74.55555555555556" height="74.55555555555556" fill="#ffffff"/><circle cx="242.31" cy="167.75" r="18.64" fill="#000000"/><circle cx="279.58" cy="167.75" r="18.64" fill="#000000"/><circle cx="242.31" cy="205.02999999999997" r="18.64" fill="#000000"/><circle cx="279.58" cy="205.02999999999997" r="18.64" fill="#000000"/><circle cx="335.5" cy="186.39000000000001" r="37.28" fill="#000000"/><circle cx="410.05999999999995" cy="186.39000000000001" r="37.28" fill="#000000"/><circle cx="484.61" cy="186.39000000000001" r="37.28" fill="#000000"/><circle cx="559.17" cy="186.39000000000001" r="37.28" fill="#000000"/><circle cx="633.72" cy="186.39000000000001" r="37.28" fill="#000000"/><rect x="671" y="149.11111111111111" width="74.55555555555556" height="74.55555555555556" fill="#ffffff"/><circle cx="689.64" cy="167.75" r="18.64" fill="#000000"/><circle cx="726.92" cy="167.75" r="18.64" fill="#000000"/><circle cx="689.64" cy="205.02999999999997" r="18.64" fill="#000000"/><circle cx="726.92" cy="205.02999999999997" r="18.64" fill="#000000"/><circle cx="37.28" cy="260.95" r="37.28" fill="#000000"/><rect x="74.55555555555556" y="223.66666666666669" width="74.55555555555556" height="74.55555555555556" fill="#ffffff"/><circle cx="93.2" cy="242.31" r="18.64" fill="#000000"/><circle cx="130.47" cy="242.31" r="18.64" fill="#000000"/><circle cx="93.2" cy="279.58" r="18.64" fill="#000000"/><circle cx="130.47" cy="279.58" r="18.64" fill="#000000"/><rect x="149.11111111111111" y="223.66666666666669" width="74.55555555555556" height="74.55555555555556" fill="#ffffff"/><circle cx="167.75" cy="242.31" r="18.64" fill="#000000"/><circle cx="205.02999999999997" cy="242.31" r="18.64" fill="#000000"/><circle cx="167.75" cy="279.58" r="18.64" fill="#000000"/><circle cx="205.02999999999997" cy="279.58" r="18.64" fill="#000000"/><circle cx="260.95" cy="260.95" r="37.28" fill="#000000"/><circle cx="335.5" cy="260.95" r="37.28" fill="#000000"/><rect x="372.77777777777777" y="223.66666666666669" width="74.55555555555556" height="74.55555555555556" fill="#ffffff"/><circle cx="391.41999999999996" cy="242.31" r="18.64" fill="#000000"/><circle cx="428.7" cy="242.31" r="18.64" fill="#000000"/><circle cx="391.41999999999996" cy="279.58" r="18.64" fill="#000000"/><circle cx="428.7" cy="279.58" r="18.64" fill="#000000"/><rect x="447.33333333333337" y="223.66666666666669" width="74.55555555555556" height="74.55555555555556" fill="#ffffff"/><circle cx="465.96999999999997" cy="242.31" r="18.64" fill="#000000"/><circle cx="503.25" cy="242.31" r="18.64" fill="#000000"/><circle cx="465.96999999999997" cy="279.58" r="18.64" fill="#000000"/><circle cx="503.25" cy="279.58" r="18.64" fill="#000000"/><circle cx="559.17" cy="260.95" r="37.28" fill="#000000"/><rect x="596.4444444444445" y="223.66666666666669" width="74.55555555555556" height="74.55555555555556" fill="#ffffff"/><circle cx="615.08" cy="242.31" r="18.64" fill="#000000"/><circle cx="652.36" cy="242.31" r="18.64" fill="#000000"/><circle cx="615.08" cy="279.58" r="18.64" fill="#000000"/><circle cx="652.36" cy="279.58" r="18.64" fill="#000000"/><circle cx="708.28" cy="260.95" r="37.28" fill="#000000"/><rect x="0" y="298.22222222222223" width="74.55555555555556" height="74.55555555555556" fill="#ffffff"/><circle cx="18.64" cy="316.86" r="18.64" fill="#000000"/><circle cx="55.92" cy="316.86" r="18.64" fill="#000000"/><circle cx="18.64" cy="354.14" r="18.64" fill="#000000"/><circle cx="55.92" cy="354.14" r="18.64" fill="#000000"/><rect x="74.55555555555556" y="298.22222222222223" width="74.55555555555556" height="74.55555555555556" fill="#ffffff"/><circle cx="93.2" cy="316.86" r="18.64" fill="#000000"/><circle cx="130.47" cy="316.86" r="18.64" fill="#000000"/><circle cx="93.2" cy="354.14" r="18.64" fill="#000000"/><circle cx="130.47" cy="354.14" r="18.64" fill="#000000"/><circle cx="186.39000000000001" cy="335.5" r="37.28" fill="#000000"/><circle cx="260.95" cy="335.5" r="37.28" fill="#000000"/><rect x="298.22222222222223" y="298.22222222222223" width="74.55555555555556" height="74.55555555555556" fill="#ffffff"/><circle cx="316.86" cy="316.86" r="18.64" fill="#000000"/><circle cx="354.14" cy="316.86" r="18.64" fill="#000000"/><circle cx="316.86" cy="354.14" r="18.64" fill="#000000"/><circle cx="354.14" cy="354.14" r="18.64" fill="#000000"/><rect x="372.77777777777777" y="298.22222222222223" width="74.55555555555556" height="74.55555555555556" fill="#ffffff"/><circle cx="391.41999999999996" cy="316.86" r="18.64" fill="#000000"/><circle cx="428.7" cy="316.86" r="18.64" fill="#000000"/><circle cx="391.41999999999996" cy="354.14" r="18.64" fill="#000000"/><circle cx="428.7" cy="354.14" r="18.64" fill="#000000"/><circle cx="484.61" cy="335.5" r="37.28" fill="#000000"/><circle cx="559.17" cy="335.5" r="37.28" fill="#000000"/><rect x="596.4444444444445" y="298.22222222222223" width="74.55555555555556" height="74.55555555555556" fill="#ffffff"/><circle cx="615.08" cy="316.86" r="18.64" fill="#000000"/><circle cx="652.36" cy="316.86" r="18.64" fill="#000000"/><circle cx="615.08" cy="354.14" r="18.64" fill="#000000"/><circle cx="652.36" cy="354.14" r="18.64" fill="#000000"/><rect x="671" y="298.22222222222223" width="74.55555555555556" height="74.55555555555556" fill="#ffffff"/><circle cx="689.64" cy="316.86" r="18.64" fill="#000000"/><circle cx="726.92" cy="316.86" r="18.64" fill="#000000"/><circle cx="689.64" cy="354.14" r="18.64" fill="#000000"/><circle cx="726.92" cy="354.14" r="18.64" fill="#000000"/><circle cx="37.28" cy="410.05999999999995" r="37.28" fill="#000000"/><circle cx="111.84" cy="410.05999999999995" r="37.28" fill="#000000"/><circle cx="186.39000000000001" cy="410.05999999999995" r="37.28" fill="#000000"/><circle cx="260.95" cy="410.05999999999995" r="37.28" fill="#000000"/><circle cx="335.5" cy="410.05999999999995" r="37.28" fill="#000000"/><rect x="372.77777777777777" y="372.77777777777777" width="74.55555555555556" height="74.55555555555556" fill="#ffffff"/><circle cx="391.41999999999996" cy="391.41999999999996" r="18.64" fill="#000000"/><circle cx="428.7" cy="391.41999999999996" r="18.64" fill="#000000"/><circle cx="391.41999999999996" cy="428.7" r="18.64" fill="#000000"/><circle cx="428.7" cy="428.7" r="18.64" fill="#000000"/><rect x="447.33333333333337" y="372.77777777777777" width="74.55555555555556" height="74.55555555555556" fill="#ffffff"/><circle cx="465.96999999999997" cy="391.41999999999996" r="18.64" fill="#000000"/><circle cx="503.25" cy="391.41999999999996" r="18.64" fill="#000000"/><circle cx="465.96999999999997" cy="428.7" r="18.64" fill="#000000"/><circle cx="503.25" cy="428.7" r="18.64" fill="#000000"/><circle cx="559.17" cy="410.05999999999995" r="37.28" fill="#000000"/><circle cx="633.72" cy="410.05999999999995" r="37.28" fill="#000000"/><rect x="671" y="372.77777777777777" width="74.55555555555556" height="74.55555555555556" fill="#ffffff"/><circle cx="689.64" cy="391.41999999999996" r="18.64" fill="#000000"/><circle cx="726.92" cy="391.41999999999996" r="18.64" fill="#000000"/><circle cx="689.64" cy="428.7" r="18.64" fill="#000000"/><circle cx="726.92" cy="428.7" r="18.64" fill="#000000"/><rect x="0" y="447.33333333333337" width="74.55555555555556" height="74.55555555555556" fill="#ffffff"/><circle cx="18.64" cy="465.96999999999997" r="18.64" fill="#000000"/><circle cx="55.92" cy="465.96999999999997" r="18.64" fill="#000000"/><circle cx="18.64" cy="503.25" r="18.64" fill="#000000"/><circle cx="55.92" cy="503.25" r="18.64" fill="#000000"/><rect x="74.55555555555556" y="447.33333333333337" width="74.55555555555556" height="74.55555555555556" fill="#ffffff"/><circle cx="93.2" cy="465.96999999999997" r="18.64" fill="#000000"/><circle cx="130.47" cy="465.96999999999997" r="18.64" fill="#000000"/><circle cx="93.2" cy="503.25" r="18.64" fill="#000000"/><circle cx="130.47" cy="503.25" r="18.64" fill="#000000"/><circle cx="186.39000000000001" cy="484.61" r="37.28" fill="#000000"/><circle cx="260.95" cy="484.61" r="37.28" fill="#000000"/><rect x="298.22222222222223" y="447.33333333333337" width="74.55555555555556" height="74.55555555555556" fill="#ffffff"/><circle cx="316.86" cy="465.96999999999997" r="18.64" fill="#000000"/><circle cx="354.14" cy="465.96999999999997" r="18.64" fill="#000000"/><circle cx="316.86" cy="503.25" r="18.64" fill="#000000"/><circle cx="354.14" cy="503.25" r="18.64" fill="#000000"/><circle cx="410.05999999999995" cy="484.61" r="37.28" fill="#000000"/><circle cx="484.61" cy="484.61" r="37.28" fill="#000000"/><circle cx="559.17" cy="484.61" r="37.28" fill="#000000"/><rect x="596.4444444444445" y="447.33333333333337" width="74.55555555555556" height="74.55555555555556" fill="#ffffff"/><circle cx="615.08" cy="465.96999999999997" r="18.64" fill="#000000"/><circle cx="652.36" cy="465.96999999999997" r="18.64" fill="#000000"/><circle cx="615.08" cy="503.25" r="18.64" fill="#000000"/><circle cx="652.36" cy="503.25" r="18.64" fill="#000000"/><circle cx="708.28" cy="484.61" r="37.28" fill="#000000"/><circle cx="37.28" cy="559.17" r="37.28" fill="#000000"/><circle cx="111.84" cy="559.17" r="37.28" fill="#000000"/><rect x="149.11111111111111" y="521.8888888888889" width="74.55555555555556" height="74.55555555555556" fill="#ffffff"/><circle cx="167.75" cy="540.53" r="18.64" fill="#000000"/><circle cx="205.02999999999997" cy="540.53" r="18.64" fill="#000000"/><circle cx="167.75" cy="577.81" r="18.64" fill="#000000"/><circle cx="205.02999999999997" cy="577.81" r="18.64" fill="#000000"/><circle cx="260.95" cy="559.17" r="37.28" fill="#000000"/><circle cx="335.5" cy="559.17" r="37.28" fill="#000000"/><circle cx="410.05999999999995" cy="559.17" r="37.28" fill="#000000"/><rect x="447.33333333333337" y="521.8888888888889" width="74.55555555555556" height="74.55555555555556" fill="#ffffff"/><circle cx="465.96999999999997" cy="540.53" r="18.64" fill="#000000"/><circle cx="503.25" cy="540.53" r="18.64" fill="#000000"/><circle cx="465.96999999999997" cy="577.81" r="18.64" fill="#000000"/><circle cx="503.25" cy="577.81" r="18.64" fill="#000000"/><rect x="521.8888888888889" y="521.8888888888889" width="74.55555555555556" height="74.55555555555556" fill="#ffffff"/><circle cx="540.53" cy="540.53" r="18.64" fill="#000000"/><circle cx="577.81" cy="540.53" r="18.64" fill="#000000"/><circle cx="540.53" cy="577.81" r="18.64" fill="#000000"/><circle cx="577.81" cy="577.81" r="18.64" fill="#000000"/><circle cx="633.72" cy="559.17" r="37.28" fill="#000000"/><circle cx="708.28" cy="559.17" r="37.28" fill="#000000"/><circle cx="37.28" cy="633.72" r="37.28" fill="#000000"/><circle cx="111.84" cy="633.72" r="37.28" fill="#000000"/><rect x="149.11111111111111" y="596.4444444444445" width="74.55555555555556" height="74.55555555555556" fill="#ffffff"/><circle cx="167.75" cy="615.08" r="18.64" fill="#000000"/><circle cx="205.02999999999997" cy="615.08" r="18.64" fill="#000000"/><circle cx="167.75" cy="652.36" r="18.64" fill="#000000"/><circle cx="205.02999999999997" cy="652.36" r="18.64" fill="#000000"/><rect x="223.66666666666669" y="596.4444444444445" width="74.55555555555556" height="74.55555555555556" fill="#ffffff"/><circle cx="242.31" cy="615.08" r="18.64" fill="#000000"/><circle cx="279.58" cy="615.08" r="18.64" fill="#000000"/><circle cx="242.31" cy="652.36" r="18.64" fill="#000000"/><circle cx="279.58" cy="652.36" r="18.64" fill="#000000"/><rect x="298.22222222222223" y="596.4444444444445" width="74.55555555555556" height="74.55555555555556" fill="#ffffff"/><circle cx="316.86" cy="615.08" r="18.64" fill="#000000"/><circle cx="354.14" cy="615.08" r="18.64" fill="#000000"/><circle cx="316.86" cy="652.36" r="18.64" fill="#000000"/><circle cx="354.14" cy="652.36" r="18.64" fill="#000000"/><circle cx="410.05999999999995" cy="633.72" r="37.28" fill="#000000"/><rect x="447.33333333333337" y="596.4444444444445" width="74.55555555555556" height="74.55555555555556" fill="#ffffff"/><circle cx="465.96999999999997" cy="615.08" r="18.64" fill="#000000"/><circle cx="503.25" cy="615.08" r="18.64" fill="#000000"/><circle cx="465.96999999999997" cy="652.36" r="18.64" fill="#000000"/><circle cx="503.25" cy="652.36" r="18.64" fill="#000000"/><circle cx="559.17" cy="633.72" r="37.28" fill="#000000"/><circle cx="633.72" cy="633.72" r="37.28" fill="#000000"/><rect x="671" y="596.4444444444445" width="74.55555555555556" height="74.55555555555556" fill="#ffffff"/><circle cx="689.64" cy="615.08" r="18.64" fill="#000000"/><circle cx="726.92" cy="615.08" r="18.64" fill="#000000"/><circle cx="689.64" cy="652.36" r="18.64" fill="#000000"/><circle cx="726.92" cy="652.36" r="18.64" fill="#000000"/></g></svg>